<mxfile host="65bd71144e">
    <diagram id="TOWprPbEWLXmO6JBpuIp" name="Page-1">
        <mxGraphModel dx="2246" dy="1574" grid="1" gridSize="10" guides="1" tooltips="1" connect="1" arrows="1" fold="1" page="1" pageScale="1" pageWidth="850" pageHeight="1100" background="#000000" math="0" shadow="0">
            <root>
                <mxCell id="0"/>
                <mxCell id="1" parent="0"/>
                <mxCell id="176" value="&lt;font style=&quot;font-size: 36px;&quot;&gt;&lt;b&gt;2. Venda do Veiculo&lt;/b&gt;&lt;/font&gt;" style="text;html=1;align=center;verticalAlign=middle;resizable=0;points=[];autosize=1;strokeColor=none;fillColor=none;" parent="1" vertex="1">
                    <mxGeometry y="151" width="360" height="60" as="geometry"/>
                </mxCell>
                <mxCell id="204" style="edgeStyle=none;html=1;fontSize=12;entryX=0;entryY=0.5;entryDx=0;entryDy=0;" parent="1" source="27" target="143" edge="1">
                    <mxGeometry relative="1" as="geometry">
                        <mxPoint x="203.5" y="1665" as="targetPoint"/>
                    </mxGeometry>
                </mxCell>
                <mxCell id="206" value="Lista" style="edgeLabel;html=1;align=center;verticalAlign=middle;resizable=0;points=[];fontSize=12;" parent="204" vertex="1" connectable="0">
                    <mxGeometry x="-0.3744" y="-2" relative="1" as="geometry">
                        <mxPoint x="23" y="-2" as="offset"/>
                    </mxGeometry>
                </mxCell>
                <mxCell id="27" value="Cliente" style="shape=umlActor;verticalLabelPosition=bottom;verticalAlign=top;html=1;outlineConnect=0;" parent="1" vertex="1">
                    <mxGeometry x="23.5" y="1630" width="30" height="60" as="geometry"/>
                </mxCell>
                <mxCell id="49" style="edgeStyle=none;html=1;entryX=0;entryY=0.5;entryDx=0;entryDy=0;entryPerimeter=0;" parent="1" source="51" target="62" edge="1">
                    <mxGeometry relative="1" as="geometry">
                        <mxPoint x="440" y="350" as="targetPoint"/>
                    </mxGeometry>
                </mxCell>
                <mxCell id="61" value="Pega lista de todos os veiculos a venda" style="edgeLabel;html=1;align=center;verticalAlign=middle;resizable=0;points=[];" parent="49" vertex="1" connectable="0">
                    <mxGeometry x="0.109" y="-4" relative="1" as="geometry">
                        <mxPoint as="offset"/>
                    </mxGeometry>
                </mxCell>
                <mxCell id="63" value="Veiculos a venda" style="edgeLabel;html=1;align=center;verticalAlign=middle;resizable=0;points=[];" parent="49" vertex="1" connectable="0">
                    <mxGeometry x="0.109" y="-4" relative="1" as="geometry">
                        <mxPoint x="184" y="56" as="offset"/>
                    </mxGeometry>
                </mxCell>
                <mxCell id="86" value="Venda" style="edgeLabel;html=1;align=center;verticalAlign=middle;resizable=0;points=[];" parent="49" vertex="1" connectable="0">
                    <mxGeometry x="0.109" y="-4" relative="1" as="geometry">
                        <mxPoint x="184" y="396" as="offset"/>
                    </mxGeometry>
                </mxCell>
                <mxCell id="79" style="edgeStyle=none;html=1;entryX=0.015;entryY=0.5;entryDx=0;entryDy=0;entryPerimeter=0;" parent="1" source="51" edge="1">
                    <mxGeometry relative="1" as="geometry">
                        <mxPoint x="441.5" y="496.5" as="targetPoint"/>
                    </mxGeometry>
                </mxCell>
                <mxCell id="80" value="Mostra veiculos a venda" style="edgeLabel;html=1;align=center;verticalAlign=middle;resizable=0;points=[];" parent="79" vertex="1" connectable="0">
                    <mxGeometry x="-0.0662" relative="1" as="geometry">
                        <mxPoint x="3" as="offset"/>
                    </mxGeometry>
                </mxCell>
                <mxCell id="51" value="Vendedor" style="shape=umlActor;verticalLabelPosition=bottom;verticalAlign=top;html=1;outlineConnect=0;" parent="1" vertex="1">
                    <mxGeometry x="121" y="320" width="30" height="60" as="geometry"/>
                </mxCell>
                <mxCell id="58" value="1" style="ellipse;whiteSpace=wrap;html=1;aspect=fixed;strokeWidth=2;fontFamily=Tahoma;spacingBottom=4;spacingRight=2;strokeColor=#d3d3d3;" parent="1" vertex="1">
                    <mxGeometry x="160" y="324" width="20" height="20" as="geometry"/>
                </mxCell>
                <mxCell id="62" value="" style="whiteSpace=wrap;html=1;shape=mxgraph.basic.document" parent="1" vertex="1">
                    <mxGeometry x="445" y="300" width="100" height="100" as="geometry"/>
                </mxCell>
                <mxCell id="95" style="edgeStyle=none;html=1;entryX=0;entryY=0.5;entryDx=0;entryDy=0;entryPerimeter=0;" parent="1" source="65" target="94" edge="1">
                    <mxGeometry relative="1" as="geometry"/>
                </mxCell>
                <mxCell id="99" value="Entrega" style="edgeLabel;html=1;align=center;verticalAlign=middle;resizable=0;points=[];" parent="95" vertex="1" connectable="0">
                    <mxGeometry x="0.1728" y="1" relative="1" as="geometry">
                        <mxPoint y="-1" as="offset"/>
                    </mxGeometry>
                </mxCell>
                <mxCell id="65" value="Cliente" style="shape=umlActor;verticalLabelPosition=bottom;verticalAlign=top;html=1;outlineConnect=0;" parent="1" vertex="1">
                    <mxGeometry x="121" y="470" width="30" height="60" as="geometry"/>
                </mxCell>
                <mxCell id="71" style="edgeStyle=none;html=1;" parent="1" edge="1">
                    <mxGeometry relative="1" as="geometry">
                        <mxPoint x="156" y="499" as="sourcePoint"/>
                        <mxPoint x="440" y="499" as="targetPoint"/>
                    </mxGeometry>
                </mxCell>
                <mxCell id="72" value="Escolhe um veiculo" style="edgeLabel;html=1;align=center;verticalAlign=middle;resizable=0;points=[];" parent="71" vertex="1" connectable="0">
                    <mxGeometry x="0.109" y="-4" relative="1" as="geometry">
                        <mxPoint as="offset"/>
                    </mxGeometry>
                </mxCell>
                <mxCell id="74" value="3" style="ellipse;whiteSpace=wrap;html=1;aspect=fixed;strokeWidth=2;fontFamily=Tahoma;spacingBottom=4;spacingRight=2;strokeColor=#d3d3d3;" parent="1" vertex="1">
                    <mxGeometry x="165" y="473" width="20" height="20" as="geometry"/>
                </mxCell>
                <mxCell id="75" value="" style="group" parent="1" vertex="1" connectable="0">
                    <mxGeometry x="440" y="486.5" width="120" height="63.5" as="geometry"/>
                </mxCell>
                <mxCell id="77" value="Veiculo" style="text;html=1;strokeColor=none;fillColor=none;align=center;verticalAlign=middle;whiteSpace=wrap;rounded=0;" parent="75" vertex="1">
                    <mxGeometry x="10" y="33.5" width="100" height="30" as="geometry"/>
                </mxCell>
                <mxCell id="140" value="" style="rounded=0;whiteSpace=wrap;html=1;" parent="75" vertex="1">
                    <mxGeometry y="-20" width="120" height="60" as="geometry"/>
                </mxCell>
                <mxCell id="81" value="2" style="ellipse;whiteSpace=wrap;html=1;aspect=fixed;strokeWidth=2;fontFamily=Tahoma;spacingBottom=4;spacingRight=2;strokeColor=#d3d3d3;" parent="1" vertex="1">
                    <mxGeometry x="180" y="360" width="20" height="20" as="geometry"/>
                </mxCell>
                <mxCell id="88" style="edgeStyle=none;html=1;entryX=0;entryY=0.5;entryDx=0;entryDy=0;entryPerimeter=0;" parent="1" source="82" edge="1">
                    <mxGeometry relative="1" as="geometry">
                        <mxPoint x="445" y="690" as="targetPoint"/>
                    </mxGeometry>
                </mxCell>
                <mxCell id="89" value="Cria a venda" style="edgeLabel;html=1;align=center;verticalAlign=middle;resizable=0;points=[];" parent="88" vertex="1" connectable="0">
                    <mxGeometry x="-0.1338" y="2" relative="1" as="geometry">
                        <mxPoint x="12" y="2" as="offset"/>
                    </mxGeometry>
                </mxCell>
                <mxCell id="82" value="Vendedor" style="shape=umlActor;verticalLabelPosition=bottom;verticalAlign=top;html=1;outlineConnect=0;" parent="1" vertex="1">
                    <mxGeometry x="121" y="660" width="30" height="60" as="geometry"/>
                </mxCell>
                <mxCell id="83" value="5" style="ellipse;whiteSpace=wrap;html=1;aspect=fixed;strokeWidth=2;fontFamily=Tahoma;spacingBottom=4;spacingRight=2;strokeColor=#d3d3d3;" parent="1" vertex="1">
                    <mxGeometry x="240" y="700" width="20" height="20" as="geometry"/>
                </mxCell>
                <mxCell id="85" value="" style="whiteSpace=wrap;html=1;shape=mxgraph.basic.document" parent="1" vertex="1">
                    <mxGeometry x="445" y="643" width="100" height="100" as="geometry"/>
                </mxCell>
                <mxCell id="96" style="edgeStyle=none;html=1;" parent="1" source="94" edge="1">
                    <mxGeometry relative="1" as="geometry">
                        <mxPoint x="150" y="690" as="targetPoint"/>
                    </mxGeometry>
                </mxCell>
                <mxCell id="100" value="para" style="edgeLabel;html=1;align=center;verticalAlign=middle;resizable=0;points=[];" parent="96" vertex="1" connectable="0">
                    <mxGeometry x="-0.3069" y="-2" relative="1" as="geometry">
                        <mxPoint x="-12" y="11" as="offset"/>
                    </mxGeometry>
                </mxCell>
                <mxCell id="94" value="Documentos" style="whiteSpace=wrap;html=1;shape=mxgraph.basic.document" parent="1" vertex="1">
                    <mxGeometry x="260" y="550" width="100" height="100" as="geometry"/>
                </mxCell>
                <mxCell id="97" value="4" style="ellipse;whiteSpace=wrap;html=1;aspect=fixed;strokeWidth=2;fontFamily=Tahoma;spacingBottom=4;spacingRight=2;strokeColor=#d3d3d3;" parent="1" vertex="1">
                    <mxGeometry x="201" y="530" width="20" height="20" as="geometry"/>
                </mxCell>
                <mxCell id="102" value="" style="strokeWidth=2;html=1;shape=mxgraph.flowchart.annotation_2;align=left;labelPosition=right;pointerEvents=1;" parent="1" vertex="1">
                    <mxGeometry x="545" y="300" width="50" height="100" as="geometry"/>
                </mxCell>
                <mxCell id="104" value="É uma grande lista com os dados de todos os veiculos a venda" style="text;html=1;strokeColor=none;fillColor=none;align=center;verticalAlign=middle;whiteSpace=wrap;rounded=0;" parent="1" vertex="1">
                    <mxGeometry x="580" y="300" width="150" height="100" as="geometry"/>
                </mxCell>
                <mxCell id="105" value="" style="strokeWidth=2;html=1;shape=mxgraph.flowchart.annotation_2;align=left;labelPosition=right;pointerEvents=1;" parent="1" vertex="1">
                    <mxGeometry x="545" y="643" width="50" height="100" as="geometry"/>
                </mxCell>
                <mxCell id="106" value="É um documento com todas as informacoes a respeito da venda, dados do cliente e do veiculo." style="text;html=1;strokeColor=none;fillColor=none;align=center;verticalAlign=middle;whiteSpace=wrap;rounded=0;" parent="1" vertex="1">
                    <mxGeometry x="570" y="643" width="150" height="100" as="geometry"/>
                </mxCell>
                <mxCell id="109" value="&lt;font style=&quot;font-size: 48px;&quot;&gt;Dominio Puro&lt;/font&gt;" style="text;html=1;strokeColor=none;fillColor=none;align=center;verticalAlign=middle;whiteSpace=wrap;rounded=0;" parent="1" vertex="1">
                    <mxGeometry x="121" y="-420" width="635" height="170" as="geometry"/>
                </mxCell>
                <mxCell id="111" value="Sistema" style="rounded=0;whiteSpace=wrap;html=1;" parent="1" vertex="1">
                    <mxGeometry x="465" y="1630" width="120" height="60" as="geometry"/>
                </mxCell>
                <mxCell id="141" value="" style="group" parent="1" vertex="1" connectable="0">
                    <mxGeometry x="228.5" y="1645" width="120" height="63.5" as="geometry"/>
                </mxCell>
                <mxCell id="142" value="Veiculo" style="text;html=1;strokeColor=none;fillColor=none;align=center;verticalAlign=middle;whiteSpace=wrap;rounded=0;" parent="141" vertex="1">
                    <mxGeometry x="10" y="33.5" width="100" height="30" as="geometry"/>
                </mxCell>
                <mxCell id="143" value="" style="rounded=0;whiteSpace=wrap;html=1;" parent="141" vertex="1">
                    <mxGeometry x="10" y="-10" width="100" height="50" as="geometry"/>
                </mxCell>
                <mxCell id="149" style="edgeStyle=none;html=1;entryX=0;entryY=0.5;entryDx=0;entryDy=0;" parent="1" source="144" target="148" edge="1">
                    <mxGeometry relative="1" as="geometry"/>
                </mxCell>
                <mxCell id="151" value="Registra" style="edgeLabel;html=1;align=center;verticalAlign=middle;resizable=0;points=[];" parent="149" vertex="1" connectable="0">
                    <mxGeometry x="-0.2042" y="1" relative="1" as="geometry">
                        <mxPoint x="16" y="1" as="offset"/>
                    </mxGeometry>
                </mxCell>
                <mxCell id="144" value="Operador 2" style="shape=umlActor;verticalLabelPosition=bottom;verticalAlign=top;html=1;outlineConnect=0;" parent="1" vertex="1">
                    <mxGeometry x="121" y="30" width="30" height="60" as="geometry"/>
                </mxCell>
                <mxCell id="146" value="" style="group" parent="1" vertex="1" connectable="0">
                    <mxGeometry x="435" y="50" width="120" height="63.5" as="geometry"/>
                </mxCell>
                <mxCell id="147" value="Veiculo" style="text;html=1;strokeColor=none;fillColor=none;align=center;verticalAlign=middle;whiteSpace=wrap;rounded=0;" parent="146" vertex="1">
                    <mxGeometry x="10" y="33.5" width="100" height="30" as="geometry"/>
                </mxCell>
                <mxCell id="148" value="" style="rounded=0;whiteSpace=wrap;html=1;" parent="146" vertex="1">
                    <mxGeometry y="-20" width="120" height="60" as="geometry"/>
                </mxCell>
                <mxCell id="150" style="edgeStyle=none;html=1;exitX=0.5;exitY=1;exitDx=0;exitDy=0;entryX=0.5;entryY=0;entryDx=0;entryDy=0;entryPerimeter=0;" parent="1" source="147" target="62" edge="1">
                    <mxGeometry relative="1" as="geometry"/>
                </mxCell>
                <mxCell id="152" value="no" style="edgeLabel;html=1;align=center;verticalAlign=middle;resizable=0;points=[];" parent="150" vertex="1" connectable="0">
                    <mxGeometry x="-0.281" y="1" relative="1" as="geometry">
                        <mxPoint as="offset"/>
                    </mxGeometry>
                </mxCell>
                <mxCell id="153" value="1" style="ellipse;whiteSpace=wrap;html=1;aspect=fixed;strokeWidth=2;fontFamily=Tahoma;spacingBottom=4;spacingRight=2;strokeColor=#d3d3d3;" parent="1" vertex="1">
                    <mxGeometry x="165" y="-120" width="20" height="20" as="geometry"/>
                </mxCell>
                <mxCell id="155" value="" style="endArrow=none;dashed=1;html=1;" parent="1" edge="1">
                    <mxGeometry width="50" height="50" relative="1" as="geometry">
                        <mxPoint y="150" as="sourcePoint"/>
                        <mxPoint x="850" y="150" as="targetPoint"/>
                    </mxGeometry>
                </mxCell>
                <mxCell id="269" value="Text" style="edgeLabel;html=1;align=center;verticalAlign=middle;resizable=0;points=[];" vertex="1" connectable="0" parent="155">
                    <mxGeometry x="-0.5136" y="-10" relative="1" as="geometry">
                        <mxPoint x="1" as="offset"/>
                    </mxGeometry>
                </mxCell>
                <mxCell id="160" value="" style="group" parent="1" vertex="1" connectable="0">
                    <mxGeometry x="437.5" y="-130" width="112.5" height="90" as="geometry"/>
                </mxCell>
                <mxCell id="158" value="" style="html=1;verticalLabelPosition=bottom;align=center;labelBackgroundColor=#ffffff;verticalAlign=top;strokeWidth=2;strokeColor=#0080F0;shadow=0;dashed=0;shape=mxgraph.ios7.icons.mail;" parent="160" vertex="1">
                    <mxGeometry width="112.5" height="60" as="geometry"/>
                </mxCell>
                <mxCell id="159" value="Email" style="text;html=1;strokeColor=none;fillColor=none;align=center;verticalAlign=middle;whiteSpace=wrap;rounded=0;" parent="160" vertex="1">
                    <mxGeometry x="29.25" y="60" width="54" height="30" as="geometry"/>
                </mxCell>
                <mxCell id="162" value="para" style="edgeStyle=none;html=1;" parent="1" edge="1">
                    <mxGeometry relative="1" as="geometry">
                        <mxPoint x="436.5" y="-71.875" as="sourcePoint"/>
                        <mxPoint x="150" y="53.59756097561012" as="targetPoint"/>
                        <Array as="points">
                            <mxPoint x="299" y="-10"/>
                        </Array>
                    </mxGeometry>
                </mxCell>
                <mxCell id="164" value="2" style="ellipse;whiteSpace=wrap;html=1;aspect=fixed;strokeWidth=2;fontFamily=Tahoma;spacingBottom=4;spacingRight=2;strokeColor=#d3d3d3;" parent="1" vertex="1">
                    <mxGeometry x="200" y="70" width="20" height="20" as="geometry"/>
                </mxCell>
                <mxCell id="170" value="Dados de veiculo a venda" style="edgeStyle=none;html=1;entryX=-0.013;entryY=0.508;entryDx=0;entryDy=0;entryPerimeter=0;" parent="1" source="169" target="158" edge="1">
                    <mxGeometry relative="1" as="geometry"/>
                </mxCell>
                <mxCell id="169" value="Operador 1" style="shape=umlActor;verticalLabelPosition=bottom;verticalAlign=top;html=1;outlineConnect=0;" parent="1" vertex="1">
                    <mxGeometry x="121" y="-131" width="30" height="60" as="geometry"/>
                </mxCell>
                <mxCell id="178" value="" style="endArrow=none;dashed=1;html=1;" parent="1" edge="1">
                    <mxGeometry width="50" height="50" relative="1" as="geometry">
                        <mxPoint y="-238" as="sourcePoint"/>
                        <mxPoint x="850" y="-238" as="targetPoint"/>
                    </mxGeometry>
                </mxCell>
                <mxCell id="180" value="&lt;font style=&quot;font-size: 36px;&quot;&gt;&lt;b&gt;1. Registro do veiculo&lt;/b&gt;&lt;/font&gt;" style="text;html=1;align=center;verticalAlign=middle;resizable=0;points=[];autosize=1;strokeColor=none;fillColor=none;" parent="1" vertex="1">
                    <mxGeometry y="-240" width="400" height="60" as="geometry"/>
                </mxCell>
                <mxCell id="182" value="" style="endArrow=none;dashed=1;html=1;" parent="1" edge="1">
                    <mxGeometry width="50" height="50" relative="1" as="geometry">
                        <mxPoint y="820" as="sourcePoint"/>
                        <mxPoint x="850" y="820" as="targetPoint"/>
                    </mxGeometry>
                </mxCell>
                <mxCell id="185" value="" style="endArrow=none;dashed=1;html=1;" parent="1" edge="1">
                    <mxGeometry width="50" height="50" relative="1" as="geometry">
                        <mxPoint y="943" as="sourcePoint"/>
                        <mxPoint x="850" y="943" as="targetPoint"/>
                    </mxGeometry>
                </mxCell>
                <mxCell id="186" value="&lt;b style=&quot;font-size: 36px;&quot;&gt;1. Registro do veiculo&lt;/b&gt;" style="text;html=1;align=center;verticalAlign=middle;resizable=0;points=[];autosize=1;strokeColor=none;fillColor=none;" parent="1" vertex="1">
                    <mxGeometry y="941" width="400" height="60" as="geometry"/>
                </mxCell>
                <mxCell id="187" value="Operador" style="shape=umlActor;verticalLabelPosition=bottom;verticalAlign=top;html=1;outlineConnect=0;" parent="1" vertex="1">
                    <mxGeometry x="100" y="1126" width="30" height="60" as="geometry"/>
                </mxCell>
                <mxCell id="188" style="edgeStyle=none;html=1;" parent="1" edge="1">
                    <mxGeometry relative="1" as="geometry">
                        <mxPoint x="380" y="1156" as="targetPoint"/>
                        <mxPoint x="130.00000000000023" y="1155.995813953488" as="sourcePoint"/>
                    </mxGeometry>
                </mxCell>
                <mxCell id="189" value="Registra" style="edgeLabel;html=1;align=center;verticalAlign=middle;resizable=0;points=[];" parent="188" vertex="1" connectable="0">
                    <mxGeometry x="0.3488" y="3" relative="1" as="geometry">
                        <mxPoint x="-33" y="3" as="offset"/>
                    </mxGeometry>
                </mxCell>
                <mxCell id="190" value="" style="group" parent="1" vertex="1" connectable="0">
                    <mxGeometry x="370" y="1136" width="120" height="63.5" as="geometry"/>
                </mxCell>
                <mxCell id="191" value="Veiculo" style="text;html=1;strokeColor=none;fillColor=none;align=center;verticalAlign=middle;whiteSpace=wrap;rounded=0;" parent="190" vertex="1">
                    <mxGeometry x="10" y="33.5" width="100" height="30" as="geometry"/>
                </mxCell>
                <mxCell id="192" value="" style="rounded=0;whiteSpace=wrap;html=1;" parent="190" vertex="1">
                    <mxGeometry x="10" y="-10" width="100" height="50" as="geometry"/>
                </mxCell>
                <mxCell id="193" value="1" style="ellipse;whiteSpace=wrap;html=1;aspect=fixed;strokeWidth=2;fontFamily=Tahoma;spacingBottom=4;spacingRight=2;strokeColor=#d3d3d3;" parent="1" vertex="1">
                    <mxGeometry x="151" y="1136" width="20" height="20" as="geometry"/>
                </mxCell>
                <mxCell id="194" value="Sistema" style="rounded=0;whiteSpace=wrap;html=1;" parent="1" vertex="1">
                    <mxGeometry x="650" y="1120" width="120" height="60" as="geometry"/>
                </mxCell>
                <mxCell id="197" style="edgeStyle=none;html=1;entryX=0;entryY=0.5;entryDx=0;entryDy=0;fontSize=12;" parent="1" source="192" target="194" edge="1">
                    <mxGeometry relative="1" as="geometry"/>
                </mxCell>
                <mxCell id="198" value="no" style="edgeLabel;html=1;align=center;verticalAlign=middle;resizable=0;points=[];fontSize=12;" parent="197" vertex="1" connectable="0">
                    <mxGeometry x="-0.3342" y="-3" relative="1" as="geometry">
                        <mxPoint x="24" y="-3" as="offset"/>
                    </mxGeometry>
                </mxCell>
                <mxCell id="199" value="&lt;b style=&quot;font-size: 36px;&quot;&gt;2. Venda do Veiculo&lt;/b&gt;" style="text;html=1;align=center;verticalAlign=middle;resizable=0;points=[];autosize=1;strokeColor=none;fillColor=none;" parent="1" vertex="1">
                    <mxGeometry x="4" y="1500" width="360" height="60" as="geometry"/>
                </mxCell>
                <mxCell id="200" value="" style="endArrow=none;dashed=1;html=1;" parent="1" edge="1">
                    <mxGeometry width="50" height="50" relative="1" as="geometry">
                        <mxPoint x="-10" y="1500" as="sourcePoint"/>
                        <mxPoint x="840" y="1500" as="targetPoint"/>
                    </mxGeometry>
                </mxCell>
                <mxCell id="214" value="&lt;font style=&quot;font-size: 48px;&quot;&gt;Dominio digitalizado&lt;/font&gt;" style="text;html=1;strokeColor=none;fillColor=none;align=center;verticalAlign=middle;whiteSpace=wrap;rounded=0;" parent="1" vertex="1">
                    <mxGeometry x="108" y="790" width="635" height="170" as="geometry"/>
                </mxCell>
                <mxCell id="234" value="Escolhe" style="edgeStyle=none;html=1;fontSize=12;entryX=0;entryY=0.428;entryDx=0;entryDy=0;entryPerimeter=0;" parent="1" edge="1">
                    <mxGeometry relative="1" as="geometry">
                        <mxPoint x="240" y="1841.4" as="targetPoint"/>
                        <mxPoint x="50" y="1841" as="sourcePoint"/>
                    </mxGeometry>
                </mxCell>
                <mxCell id="233" value="Cliente" style="shape=umlActor;verticalLabelPosition=bottom;verticalAlign=top;html=1;outlineConnect=0;" parent="1" vertex="1">
                    <mxGeometry x="23.5" y="1810" width="30" height="60" as="geometry"/>
                </mxCell>
                <mxCell id="236" value="Compra" style="edgeStyle=none;html=1;fontSize=12;" parent="1" source="235" edge="1">
                    <mxGeometry relative="1" as="geometry">
                        <mxPoint x="240" y="2030" as="targetPoint"/>
                    </mxGeometry>
                </mxCell>
                <mxCell id="235" value="Cliente" style="shape=umlActor;verticalLabelPosition=bottom;verticalAlign=top;html=1;outlineConnect=0;" parent="1" vertex="1">
                    <mxGeometry x="23.5" y="2000" width="30" height="60" as="geometry"/>
                </mxCell>
                <mxCell id="237" value="1" style="ellipse;whiteSpace=wrap;html=1;aspect=fixed;strokeWidth=2;fontFamily=Tahoma;spacingBottom=4;spacingRight=2;strokeColor=#d3d3d3;" parent="1" vertex="1">
                    <mxGeometry x="78" y="1635" width="20" height="20" as="geometry"/>
                </mxCell>
                <mxCell id="238" value="2" style="ellipse;whiteSpace=wrap;html=1;aspect=fixed;strokeWidth=2;fontFamily=Tahoma;spacingBottom=4;spacingRight=2;strokeColor=#d3d3d3;" parent="1" vertex="1">
                    <mxGeometry x="70" y="1815" width="20" height="20" as="geometry"/>
                </mxCell>
                <mxCell id="239" value="3" style="ellipse;whiteSpace=wrap;html=1;aspect=fixed;strokeWidth=2;fontFamily=Tahoma;spacingBottom=4;spacingRight=2;strokeColor=#d3d3d3;" parent="1" vertex="1">
                    <mxGeometry x="70" y="2005" width="20" height="20" as="geometry"/>
                </mxCell>
                <mxCell id="241" value="" style="group" parent="1" vertex="1" connectable="0">
                    <mxGeometry x="230" y="1830" width="120" height="63.5" as="geometry"/>
                </mxCell>
                <mxCell id="242" value="Veiculo" style="text;html=1;strokeColor=none;fillColor=none;align=center;verticalAlign=middle;whiteSpace=wrap;rounded=0;" parent="241" vertex="1">
                    <mxGeometry x="10" y="33.5" width="100" height="30" as="geometry"/>
                </mxCell>
                <mxCell id="243" value="" style="rounded=0;whiteSpace=wrap;html=1;" parent="241" vertex="1">
                    <mxGeometry x="10" y="-10" width="100" height="50" as="geometry"/>
                </mxCell>
                <mxCell id="244" value="" style="group" parent="1" vertex="1" connectable="0">
                    <mxGeometry x="230" y="2020" width="120" height="63.5" as="geometry"/>
                </mxCell>
                <mxCell id="245" value="Veiculo" style="text;html=1;strokeColor=none;fillColor=none;align=center;verticalAlign=middle;whiteSpace=wrap;rounded=0;" parent="244" vertex="1">
                    <mxGeometry x="10" y="33.5" width="100" height="30" as="geometry"/>
                </mxCell>
                <mxCell id="246" value="" style="rounded=0;whiteSpace=wrap;html=1;" parent="244" vertex="1">
                    <mxGeometry x="10" y="-10" width="100" height="50" as="geometry"/>
                </mxCell>
                <mxCell id="247" value="Sistema" style="rounded=0;whiteSpace=wrap;html=1;" parent="1" vertex="1">
                    <mxGeometry x="465" y="1815" width="120" height="60" as="geometry"/>
                </mxCell>
                <mxCell id="253" value="Cria" style="edgeStyle=none;html=1;fontSize=12;" parent="1" source="248" edge="1">
                    <mxGeometry relative="1" as="geometry">
                        <mxPoint x="700" y="2035" as="targetPoint"/>
                    </mxGeometry>
                </mxCell>
                <mxCell id="248" value="Sistema" style="rounded=0;whiteSpace=wrap;html=1;" parent="1" vertex="1">
                    <mxGeometry x="464" y="2005" width="120" height="60" as="geometry"/>
                </mxCell>
                <mxCell id="251" value="no" style="edgeStyle=none;html=1;entryX=0;entryY=0.5;entryDx=0;entryDy=0;fontSize=12;" parent="1" source="243" target="247" edge="1">
                    <mxGeometry relative="1" as="geometry"/>
                </mxCell>
                <mxCell id="252" value="no" style="edgeStyle=none;html=1;entryX=0;entryY=0.5;entryDx=0;entryDy=0;fontSize=12;" parent="1" source="246" target="248" edge="1">
                    <mxGeometry relative="1" as="geometry"/>
                </mxCell>
                <mxCell id="255" value="Venda" style="rounded=0;whiteSpace=wrap;html=1;" parent="1" vertex="1">
                    <mxGeometry x="700" y="2005" width="120" height="60" as="geometry"/>
                </mxCell>
                <mxCell id="257" value="" style="endArrow=none;dashed=1;html=1;" edge="1" parent="1">
                    <mxGeometry width="50" height="50" relative="1" as="geometry">
                        <mxPoint y="1222" as="sourcePoint"/>
                        <mxPoint x="850" y="1222" as="targetPoint"/>
                    </mxGeometry>
                </mxCell>
                <mxCell id="258" value="&lt;font style=&quot;font-size: 36px;&quot;&gt;&lt;b&gt;1.1 Cadastro do cliente&lt;/b&gt;&lt;/font&gt;" style="text;html=1;align=center;verticalAlign=middle;resizable=0;points=[];autosize=1;strokeColor=none;fillColor=none;" vertex="1" parent="1">
                    <mxGeometry x="-10" y="1220" width="420" height="60" as="geometry"/>
                </mxCell>
                <mxCell id="259" value="Cliente" style="shape=umlActor;verticalLabelPosition=bottom;verticalAlign=top;html=1;outlineConnect=0;" vertex="1" parent="1">
                    <mxGeometry x="103.5" y="1356" width="30" height="60" as="geometry"/>
                </mxCell>
                <mxCell id="260" style="edgeStyle=none;html=1;" edge="1" parent="1">
                    <mxGeometry relative="1" as="geometry">
                        <mxPoint x="383.5" y="1386" as="targetPoint"/>
                        <mxPoint x="133.5" y="1385.9958139534883" as="sourcePoint"/>
                    </mxGeometry>
                </mxCell>
                <mxCell id="261" value="Cadastra" style="edgeLabel;html=1;align=center;verticalAlign=middle;resizable=0;points=[];" vertex="1" connectable="0" parent="260">
                    <mxGeometry x="0.3488" y="3" relative="1" as="geometry">
                        <mxPoint x="-33" y="3" as="offset"/>
                    </mxGeometry>
                </mxCell>
                <mxCell id="262" value="" style="group" vertex="1" connectable="0" parent="1">
                    <mxGeometry x="373.5" y="1366" width="120" height="63.5" as="geometry"/>
                </mxCell>
                <mxCell id="263" value="Cliente" style="text;html=1;strokeColor=none;fillColor=none;align=center;verticalAlign=middle;whiteSpace=wrap;rounded=0;" vertex="1" parent="262">
                    <mxGeometry x="10" y="33.5" width="100" height="30" as="geometry"/>
                </mxCell>
                <mxCell id="264" value="" style="rounded=0;whiteSpace=wrap;html=1;" vertex="1" parent="262">
                    <mxGeometry x="10" y="-10" width="100" height="50" as="geometry"/>
                </mxCell>
                <mxCell id="265" value="1" style="ellipse;whiteSpace=wrap;html=1;aspect=fixed;strokeWidth=2;fontFamily=Tahoma;spacingBottom=4;spacingRight=2;strokeColor=#d3d3d3;" vertex="1" parent="1">
                    <mxGeometry x="154.5" y="1366" width="20" height="20" as="geometry"/>
                </mxCell>
                <mxCell id="266" value="Sistema" style="rounded=0;whiteSpace=wrap;html=1;" vertex="1" parent="1">
                    <mxGeometry x="653.5" y="1350" width="120" height="60" as="geometry"/>
                </mxCell>
                <mxCell id="267" style="edgeStyle=none;html=1;entryX=0;entryY=0.5;entryDx=0;entryDy=0;fontSize=12;" edge="1" source="264" target="266" parent="1">
                    <mxGeometry relative="1" as="geometry"/>
                </mxCell>
                <mxCell id="268" value="no" style="edgeLabel;html=1;align=center;verticalAlign=middle;resizable=0;points=[];fontSize=12;" vertex="1" connectable="0" parent="267">
                    <mxGeometry x="-0.3342" y="-3" relative="1" as="geometry">
                        <mxPoint x="24" y="-3" as="offset"/>
                    </mxGeometry>
                </mxCell>
                <mxCell id="270" value="no" style="edgeStyle=none;html=1;entryX=0;entryY=0.5;entryDx=0;entryDy=0;" edge="1" parent="1" source="143" target="111">
                    <mxGeometry relative="1" as="geometry"/>
                </mxCell>
            </root>
        </mxGraphModel>
    </diagram>
</mxfile>